<svg width="512" height="512" viewBox="0 0 512 512" fill="none" xmlns="http://www.w3.org/2000/svg">
<path d="M256.022 0.00514342C257.173 0.00391686 258.323 0.00269031 259.509 0.00142657C268.759 1.41312 274.215 7.36057 280.538 13.7411C281.518 14.7164 282.499 15.6908 283.481 16.6645C286.167 19.3322 288.841 22.0116 291.512 24.6931C294.4 27.587 297.298 30.47 300.195 33.3544C305.865 39.0028 311.524 44.6615 317.179 50.3241C321.776 54.9268 326.376 59.526 330.979 64.1227C331.635 64.7772 332.29 65.4318 332.966 66.1062C334.297 67.436 335.629 68.7658 336.961 70.0956C349.444 82.5621 361.915 95.0405 374.382 107.523C385.785 118.939 397.202 130.341 408.626 141.737C420.36 153.442 432.086 165.157 443.801 176.881C445.127 178.207 446.452 179.534 447.778 180.86C448.43 181.513 449.082 182.165 449.754 182.838C454.346 187.432 458.944 192.02 463.545 196.606C469.153 202.197 474.752 207.796 480.341 213.406C483.191 216.267 486.046 219.124 488.91 221.971C491.535 224.579 494.148 227.198 496.753 229.826C497.695 230.773 498.641 231.716 499.592 232.654C505.808 238.796 510.465 244.264 511.941 253.044C511.939 254.007 511.938 254.97 511.937 255.962C511.958 256.922 511.979 257.883 512 258.872C510.281 268.448 504.237 274.807 497.512 281.418C496.577 282.355 495.643 283.292 494.709 284.231C492.16 286.789 489.595 289.333 487.028 291.874C484.256 294.624 481.497 297.387 478.736 300.149C473.956 304.928 469.167 309.699 464.373 314.463C457.434 321.359 450.509 328.268 443.587 335.18C432.346 346.405 421.095 357.62 409.838 368.827C398.92 379.696 388.007 390.569 377.099 401.447C376.427 402.118 375.754 402.788 375.062 403.478C367.723 410.797 360.385 418.117 353.047 425.438C351.1 427.381 349.153 429.323 347.205 431.266C345.921 432.547 344.638 433.828 343.354 435.109C335.195 443.249 327.031 451.385 318.864 459.518C314.743 463.621 310.623 467.727 306.503 471.833C303.25 475.076 299.995 478.316 296.738 481.555C294.758 483.525 292.78 485.498 290.802 487.471C289.473 488.795 288.142 490.117 286.811 491.439C282.483 495.761 278.408 500.173 274.459 504.842C272.128 506.708 272.128 506.708 269.999 508.053C269.288 508.512 268.578 508.971 267.846 509.443C264.019 511.615 260.656 511.745 256.32 511.859C255.131 511.906 253.942 511.952 252.718 512C242.841 511.354 235.843 504.018 229.288 497.374C228.322 496.413 227.356 495.452 226.388 494.493C223.75 491.871 221.127 489.235 218.506 486.596C215.67 483.745 212.821 480.909 209.973 478.071C204.404 472.515 198.847 466.947 193.295 461.375C186.825 454.883 180.343 448.403 173.86 441.923C162.293 430.36 150.737 418.785 139.188 407.204C127.987 395.973 116.777 384.75 105.557 373.537C93.3314 361.318 81.1099 349.095 68.8966 336.864C68.2505 336.217 67.6044 335.57 66.9387 334.903C65.6411 333.604 64.3436 332.304 63.046 331.005C58.5339 326.487 54.0188 321.971 49.5027 317.457C43.9983 311.954 38.4993 306.446 33.0069 300.932C30.2057 298.119 27.4023 295.309 24.5927 292.506C22.0188 289.937 19.4516 287.361 16.8895 284.781C15.5265 283.411 14.1566 282.049 12.7863 280.686C5.33921 273.161 0.315043 267.193 0.107796 256.319C0.0544368 254.503 0.0544368 254.503 0 252.65C0.865608 244.606 5.35839 239.583 11.01 234.137C11.6647 233.49 12.3194 232.843 12.994 232.176C15.0732 230.124 17.165 228.086 19.2583 226.049C21.3388 224.009 23.4166 221.967 25.492 219.922C26.7785 218.655 28.0683 217.393 29.3622 216.134C32.2657 213.291 35.0562 210.414 37.6949 207.322C41.4801 202.974 45.4998 198.892 49.574 194.816C50.3813 194.004 51.1885 193.193 52.0202 192.357C54.2417 190.125 56.4654 187.895 58.69 185.666C61.0963 183.255 63.4999 180.84 65.9039 178.426C71.697 172.61 77.4946 166.799 83.2931 160.988C84.9322 159.346 86.5711 157.703 88.2101 156.061C98.4031 145.844 108.598 135.629 118.797 125.419C121.153 123.06 123.51 120.701 125.867 118.341C126.452 117.755 127.038 117.169 127.641 116.565C137.137 107.057 146.623 97.5406 156.105 88.0197C165.853 78.2314 175.611 68.4521 185.377 58.6815C190.855 53.2007 196.329 47.7161 201.793 42.2212C206.443 37.5446 211.102 32.8761 215.771 28.218C218.15 25.8434 220.526 23.4652 222.891 21.0763C225.46 18.482 228.048 15.9065 230.637 13.3324C231.375 12.5814 232.113 11.8304 232.873 11.0566C239.503 4.52146 246.494 -0.168272 256.022 0.00514342Z" fill="#FDFDFD"/>
<path d="M359.149 207.969C360.327 207.976 360.327 207.976 361.528 207.984C376.654 208.065 391.709 207.946 406.817 207.161C473.889 203.931 473.889 203.931 490.403 217.976C499.745 226.973 509.732 239.906 511.94 253.043C511.938 254.488 511.938 254.488 511.936 255.961C511.957 256.921 511.978 257.882 511.999 258.871C509.864 270.766 500.787 278.228 492.579 286.339C491.125 287.793 489.673 289.247 488.222 290.703C484.295 294.635 480.353 298.552 476.409 302.467C472.282 306.566 468.169 310.679 464.054 314.791C457.151 321.685 450.238 328.571 443.32 335.45C433.549 345.167 423.794 354.9 414.042 364.636C407.294 371.371 400.543 378.103 393.791 384.833C392.151 386.467 390.511 388.102 388.872 389.737C384.205 394.39 379.536 399.04 374.863 403.686C373.445 405.097 372.027 406.509 370.611 407.921C368.686 409.84 366.759 411.755 364.831 413.67C364.263 414.237 363.695 414.804 363.11 415.389C359.258 419.205 359.258 419.205 358.197 419.205C358.106 376.912 358.351 334.622 358.621 292.33C358.68 283.101 358.737 273.873 358.794 264.645C358.91 245.753 359.029 226.861 359.149 207.969Z" fill="#00A3E0"/>
<path d="M171.926 85.8551C185.488 90.686 196.414 97.6958 203.091 110.855C205.798 116.836 207.687 122.529 208.8 128.993C208.928 129.729 209.055 130.466 209.186 131.225C211.658 146.048 212.008 160.615 211.655 175.617C188.394 185.477 162.927 189.857 138.075 193.681C115.831 197.119 94.9004 202.446 77.4828 217.484C76.7088 218.071 75.9348 218.659 75.1373 219.264C61.066 231.08 53.3717 252.113 50.8387 269.817C50.6322 274.275 50.6625 278.735 50.6603 283.197C50.6428 284.978 50.6428 284.978 50.625 286.794C50.6085 297.365 51.6225 307.358 55.1319 317.37C55.5966 319.295 55.5966 319.295 54.645 322.15C48.3911 315.963 42.1451 309.768 35.9088 303.563C33.0123 300.681 30.1132 297.803 27.208 294.93C24.4005 292.154 21.6002 289.371 18.8045 286.583C17.7407 285.524 16.6743 284.468 15.6053 283.415C0.337321 268.36 0.337316 268.36 0.107796 256.317C0.0722231 255.107 0.0366505 253.896 0 252.649C0.865608 244.605 5.35839 239.582 11.01 234.135C11.6647 233.488 12.3194 232.841 12.994 232.174C15.0732 230.123 17.165 228.085 19.2583 226.047C21.3388 224.008 23.4166 221.965 25.492 219.92C26.7785 218.654 28.0683 217.391 29.3622 216.133C32.1958 213.358 34.928 210.559 37.496 207.535C42.3641 201.944 47.5767 196.683 52.7565 191.383C53.9047 190.206 55.0528 189.028 56.201 187.851C66.6284 177.165 77.1101 166.532 87.6075 155.915C94.6535 148.786 101.681 141.642 108.668 134.455C114.78 128.166 120.924 121.911 127.108 115.692C130.374 112.405 133.623 109.105 136.835 105.764C139.856 102.625 142.917 99.5303 146.014 96.4651C147.139 95.3365 148.249 94.1925 149.341 93.0322C156.52 85.4297 161.64 82.8538 171.926 85.8551Z" fill="#00589B"/>
<path d="M257.33 207.968C273.973 207.968 290.616 207.968 307.764 207.968C307.754 214.161 307.744 220.354 307.733 226.735C307.702 247.254 307.681 267.774 307.665 288.294C307.655 300.728 307.642 313.162 307.62 325.597C307.601 336.444 307.589 347.292 307.585 358.139C307.582 363.874 307.576 369.609 307.562 375.344C307.549 380.761 307.546 386.177 307.548 391.594C307.548 393.564 307.544 395.534 307.537 397.504C307.5 407.893 307.774 418.19 308.61 428.549C308.72 429.941 308.72 429.941 308.833 431.362C309.624 440.277 310.981 449.682 314.603 457.937C315.521 460.527 315.352 461.376 314.425 463.925C313.048 465.638 313.048 465.638 311.263 467.396C310.595 468.06 309.928 468.724 309.24 469.408C308.514 470.117 307.787 470.826 307.039 471.556C305.921 472.664 305.921 472.664 304.78 473.795C302.391 476.162 299.993 478.518 297.594 480.874C295.213 483.221 292.834 485.57 290.458 487.922C288.98 489.384 287.498 490.844 286.013 492.3C282.37 495.894 278.893 499.535 275.634 503.482C274.054 505.308 272.346 506.694 270.355 508.051C269.389 508.74 269.389 508.74 268.403 509.442C265.894 510.549 265.894 510.549 257.33 511.501C257.33 411.335 257.33 311.169 257.33 207.968Z" fill="#BAD305"/>
<path d="M211.655 203.21C212.257 255.705 212.257 255.705 206.897 279.331C206.646 280.453 206.394 281.576 206.135 282.732C200.776 303.815 187.701 323.747 169.016 335.206C156.765 341.828 141.734 344.577 128.084 340.934C116.51 336.986 109.215 330.201 103.77 319.354C94.1468 299.313 94.1881 277.467 101.51 256.614C106.048 245.645 113.595 238.194 124.369 233.153C132.636 229.809 140.868 227.321 149.535 225.246C167.32 220.966 195.22 203.21 211.655 203.21Z" fill="#00599C"/>
<path d="M256.022 0.00505596C257.172 0.0038294 258.323 0.00260285 259.508 0.00133912C276.393 2.57832 293.695 21.4515 303.269 34.3851C314.099 51.192 310.604 75.9942 309.417 95.2338C308.963 102.718 308.773 110.208 308.578 117.703C308.231 131.001 307.507 144.245 306.812 157.54C290.483 157.54 274.154 157.54 257.33 157.54C257.095 152.987 256.859 148.434 256.617 143.743C255.309 122.469 251.226 102.511 235.014 87.4731C219.52 73.8327 201.818 68.4205 182.156 63.3401C187.502 56.8455 193.412 50.9241 199.329 44.9566C199.879 44.4018 200.428 43.8469 200.995 43.2753C203.903 40.3424 206.814 37.4129 209.727 34.4858C212.122 32.0782 214.51 29.664 216.892 27.2435C219.788 24.3007 222.695 21.37 225.611 18.4474C226.713 17.34 227.81 16.2286 228.902 15.113C236.698 7.16317 244.237 -0.209432 256.022 0.00505596Z" fill="#B9D305"/>
<path d="M214.51 327.858C214.51 378.412 214.51 428.966 214.51 481.052C210.449 477.572 206.642 474.254 202.893 470.502C202.441 470.05 201.988 469.599 201.522 469.133C200.028 467.641 198.538 466.145 197.047 464.65C195.968 463.571 194.889 462.492 193.81 461.413C190.896 458.5 187.986 455.584 185.076 452.668C182.028 449.615 178.978 446.564 175.928 443.513C170.16 437.743 164.395 431.97 158.63 426.196C152.064 419.62 145.496 413.046 138.927 406.473C125.421 392.958 111.918 379.44 98.4175 365.919C101.823 364.784 102.828 365.276 106.197 366.309C113.476 368.227 120.627 368.303 128.095 368.238C128.787 368.236 129.48 368.233 130.194 368.23C140.648 368.171 150.334 367.539 160.27 364.016C161.279 363.66 162.289 363.304 163.329 362.938C181.578 355.846 197.833 343.831 211.51 329.895C213.558 327.858 213.558 327.858 214.51 327.858Z" fill="#00599B"/>
<path d="M358.198 92.8369C362.624 96.6309 366.845 100.394 370.943 104.507C371.511 105.073 372.078 105.638 372.662 106.221C374.513 108.067 376.36 109.917 378.207 111.767C379.499 113.058 380.791 114.349 382.083 115.639C384.777 118.332 387.47 121.027 390.161 123.723C393.619 127.186 397.082 130.645 400.545 134.103C403.207 136.761 405.867 139.422 408.526 142.083C409.803 143.36 411.08 144.637 412.359 145.913C414.135 147.687 415.909 149.465 417.682 151.243C418.214 151.773 418.747 152.303 419.295 152.85C422.905 156.48 422.905 156.48 422.905 157.54C401.552 157.54 380.198 157.54 358.198 157.54C358.198 136.188 358.198 114.836 358.198 92.8369Z" fill="#00A2DF"/>
</svg>
